<svg width="108" height="32" viewBox="0 0 108 32" fill="none" xmlns="http://www.w3.org/2000/svg">
<path d="M4.12799 31.1041C1.67999 31.1041 -8.29622e-06 29.0881 0.335992 26.6881L3.45599 4.41613C3.79199 2.01613 6.04799 0.000128746 8.49599 0.000128746C10.944 0.000128746 12.624 2.01613 12.288 4.41613L11.28 11.5201C13.056 9.69613 15.6 8.16013 18.864 8.16013C24.048 8.16013 27.744 12.4321 26.736 19.3921C25.728 26.5441 20.832 31.1041 15.696 31.1041C12.384 31.1041 10.176 29.5201 8.97599 27.8881L8.92799 28.0801C7.96799 29.9521 6.04799 31.1041 4.12799 31.1041ZM13.248 23.9521C15.84 23.9521 17.568 21.8881 17.904 19.3921C18.24 16.8961 17.136 14.8321 14.544 14.8321C12.96 14.8321 11.376 15.6001 10.512 17.1841L9.88799 21.5041C10.368 23.2801 11.664 23.9521 13.248 23.9521ZM31.3132 31.1041C28.8652 31.1041 27.1852 29.0881 27.5212 26.6881L29.4892 12.7681C29.8252 10.2721 32.0332 8.25613 34.5292 8.25613C36.6892 8.25613 38.6572 10.1281 38.3692 12.1921L38.3212 12.5281C40.0012 10.1281 41.6332 8.97613 43.7932 8.97613C45.8092 8.97613 47.2492 10.6561 46.9612 12.6721C46.6732 14.5921 45.0412 16.1761 43.1212 16.3681C39.3772 16.7521 37.4572 18.8161 36.7852 23.6641L36.3532 26.6881C36.0172 29.0881 33.7612 31.1041 31.3132 31.1041ZM53.8507 7.53613C51.1627 7.53613 49.5787 6.04813 49.9147 3.84013C50.2027 1.58413 52.2187 0.000128746 54.9067 0.000128746C57.6907 0.000128746 59.2267 1.68013 58.9387 3.84013C58.6027 6.04813 56.6347 7.53613 53.8507 7.53613ZM50.5867 31.1041C48.1387 31.1041 46.4587 29.0881 46.7947 26.6881L48.7627 12.6721C49.0987 10.2721 51.3547 8.25613 53.8027 8.25613C56.2507 8.25613 57.9307 10.2721 57.5947 12.6721L55.6267 26.6881C55.2907 29.0881 53.0347 31.1041 50.5867 31.1041ZM62.4405 31.1041C59.9925 31.1041 58.3125 29.0881 58.6485 26.6881L61.7685 4.41613C62.1045 2.01613 64.3605 0.000128746 66.8085 0.000128746C69.2565 0.000128746 70.9365 2.01613 70.6005 4.41613L67.4805 26.6881C67.1445 29.0881 64.8885 31.1041 62.4405 31.1041ZM74.0655 31.1041C71.6175 31.1041 69.9375 29.0881 70.2735 26.6881L73.3935 4.41613C73.7295 2.01613 75.9855 0.000128746 78.4335 0.000128746C80.8815 0.000128746 82.5615 2.01613 82.2255 4.41613L79.1055 26.6881C78.7695 29.0881 76.5135 31.1041 74.0655 31.1041ZM92.8905 31.1041C86.1705 31.1041 81.5145 26.1121 82.3785 19.6321C83.2905 13.4401 89.1465 8.16013 96.2025 8.16013C103.162 8.16013 107.53 13.4881 106.666 19.6321C105.754 26.3521 99.5625 31.1041 92.8905 31.1041ZM94.0425 23.4721C96.0105 23.4721 97.5465 21.8881 97.8345 19.6321C98.1705 17.4721 97.0665 15.7921 95.0505 15.7921C93.0345 15.7921 91.5465 17.5681 91.2105 19.6321C90.9225 21.8881 92.0265 23.4721 94.0425 23.4721Z" fill="black"/>
</svg>
