<svg width="48" height="48" viewBox="0 0 48 48" fill="none" xmlns="http://www.w3.org/2000/svg">
<g clip-path="url(#clip0_11_30)">
<path d="M24.5846 44.5541C20.5204 44.6105 17.3785 44.6171 16.6921 44.4099C16.0058 44.2026 14.3188 43.6494 13.385 44.2133C12.4512 44.7771 12.1589 45.9124 11.1938 46.4185C9.72926 47.1865 8.72842 47.9182 6.88884 47.9923C3.73673 48.1192 0.817447 46.6808 0.18238 43.672C-0.596484 39.9818 1.18818 37.566 4.22175 35.332C5.46133 34.4192 7.66771 33.0693 8.11725 31.5831C8.46795 30.4237 7.37147 29.4071 6.67857 28.5659C2.24535 23.1834 1.13357 15.4921 4.11108 9.24974C5.55353 6.22564 7.88412 2.65133 12.0349 3.65638C13.8286 4.09071 15.4609 4.97954 17.3691 4.97954C19.2027 4.97954 21.0082 4.24977 22.659 3.60626C24.9857 2.69924 27.1349 1.41062 29.5314 0.659216C31.8913 -0.0806906 34.4037 -0.072901 36.8687 0.0878542C40.094 0.298193 44.3876 0.443903 47.2272 2.0325C48.4765 2.73138 47.9397 4.09496 47.4928 5.09983C46.2959 7.79145 43.9554 9.98792 42.1144 12.3171C40.6412 14.1808 37.9818 17.0413 38.7501 19.5544C39.3322 21.4583 40.8421 20.8533 42.5451 21.8219C43.7056 22.4819 43.859 24.7653 43.1325 25.5687C41.6882 27.1661 40.007 28.8667 40.5208 31.0819C40.8683 32.5803 41.7763 33.8583 42.3357 35.2819C43.5092 38.2683 42.1912 40.4591 39.2591 41.9078C34.7215 44.1496 29.6557 44.4837 24.5846 44.5541Z" fill="#8B7FFF"/>
<path d="M22.2845 33.3813C19.1802 32.9078 16.8977 31.5732 15.4372 29.3774C15.1786 29.0026 14.9786 28.5676 14.8371 28.0725C14.7149 27.5803 14.6846 27.1317 14.7464 26.7268C14.8552 26.0134 15.1792 25.4413 15.7185 25.0106C16.277 24.5828 16.9129 24.4233 17.6264 24.5321C18.2048 24.6203 18.6759 24.8303 19.0397 25.162C19.4063 25.4744 19.7466 25.9604 20.0603 26.6199C20.6283 27.8114 21.5968 28.5116 22.9658 28.7204C23.6214 28.8204 24.1767 28.7373 24.6316 28.4713C25.0894 28.186 25.3581 27.783 25.4375 27.2624C25.5198 26.7225 25.3821 26.2675 25.0242 25.8972C24.6663 25.5269 24.1018 25.283 23.3305 25.1653L22.1157 24.9801C21.3637 24.8654 20.7791 24.5592 20.3617 24.0614C19.9473 23.5444 19.7916 22.9485 19.8945 22.2736C20.0033 21.5602 20.3229 21.017 20.8534 20.6441C21.403 20.2742 22.0635 20.148 22.8348 20.2657L23.9049 20.4289C24.6183 20.5377 25.1899 20.4769 25.6197 20.2465C26.0687 20.019 26.3329 19.645 26.4123 19.1244C26.4859 18.6423 26.3519 18.2273 26.0103 17.8792C25.6718 17.5119 25.1554 17.2753 24.4612 17.1694C23.8635 17.0783 23.303 17.1309 22.7798 17.3273C22.2788 17.5074 21.8306 17.7942 21.4352 18.1877C20.5495 19.0786 19.6633 19.4564 18.7763 19.3211C18.0821 19.2152 17.5375 18.9053 17.1424 18.3912C16.7695 17.8608 16.6374 17.2389 16.7463 16.5255C16.8815 15.6385 17.401 14.82 18.3046 14.0699C19.1415 13.3689 20.1626 12.8834 21.3679 12.6135C22.5925 12.3464 23.8892 12.3173 25.2582 12.5261C26.7815 12.7585 28.0544 13.2091 29.077 13.8781C30.1219 14.5307 30.8658 15.3446 31.309 16.3198C31.7551 17.2757 31.8914 18.3224 31.7179 19.4601C31.5679 20.4434 31.1753 21.2714 30.54 21.944C29.9047 22.6166 29.0785 23.0529 28.0615 23.2529C29.0645 23.6624 29.8113 24.3287 30.3018 25.252C30.8146 26.1588 30.9886 27.1522 30.8239 28.232C30.6387 29.4467 30.164 30.4891 29.3999 31.3591C28.6388 32.2097 27.6386 32.8168 26.3994 33.1803C25.1794 33.5466 23.8078 33.6137 22.2845 33.3813Z" fill="white"/>
</g>
<defs>
<clipPath id="clip0_11_30">
<rect width="48" height="48" fill="white"/>
</clipPath>
</defs>
</svg>
